<?xml version="1.0" encoding="utf-8"?>
<!-- Generator: Adobe Illustrator 16.0.0, SVG Export Plug-In . SVG Version: 6.00 Build 0)  -->
<svg version="1.2" baseProfile="tiny" id="图层_1"
	 xmlns="http://www.w3.org/2000/svg" xmlns:xlink="http://www.w3.org/1999/xlink" x="0px" y="0px" width="571.957px"
	 height="96.747px" viewBox="0 0 571.957 96.747" xml:space="preserve">
<path fill="#ECA829" d="M315.646,44.362c-1.39-0.788-3.361-1.932-5.926-3.434c-10.62-6.153-15.934-11.332-15.934-15.535
	c0-2.401,0.973-4.333,2.922-5.796c1.945-1.463,4.496-2.196,7.646-2.196c3.361,0,6.072,0.92,8.127,2.758
	c0.909,0.813,1.729,1.792,2.424,2.926h-0.035c0.642,1.15,1.09,2.148,1.396,3.029c0.205,0.655,0.379,1.337,0.5,2.07l0,0
	c0.184,1.669-0.304,2.764-0.937,3.667c-1.625,1.937-4.078,3.854-3.315,7.596c0.148,0.235,0.455,0.71,0.605,0.947
	c0.491,0.127,0.831,0.02,0.871-0.561c0.641-2.195,1.543-3.336,5.249-3.94c10.014-1.401,20.572-3.437,16.858-13.159h-0.015
	c-1.787-6.067-5.397-10.698-10.872-13.861c-5.688-3.284-13.201-4.925-22.539-4.925c-9.771,0-17.655,2.103-23.66,6.302
	c-6.005,4.205-9.009,9.739-9.009,16.606c0,4.729,1.789,9.145,5.365,13.255c3.574,4.108,10.434,9.183,20.578,15.224
	c7.364,4.392,12.076,7.694,14.135,9.908c2.053,2.215,3.08,4.559,3.08,7.035c0,2.629-1.001,4.748-3.003,6.36
	c-2.003,1.616-4.604,2.422-7.808,2.422c-3.632,0-6.619-1.004-8.969-3.013c-2.349-2.006-5.09-5.096-5.73-8.771
	c-0.128-1.172,0.158-2.045,0.59-2.826c1.427-2.109,3.723-4.25,2.447-8.076c-0.187-0.232-0.563-0.705-0.752-0.94
	c-0.522-0.101-0.861,0.03-0.827,0.636c-0.378,2.313-1.167,3.553-4.925,4.415c-10.184,2.091-20.854,4.876-15.749,14.705h0.019
	c1.813,5.185,5.131,9.368,9.995,12.513c5.951,3.846,13.652,5.771,23.103,5.771c10.729,0,19.229-2.263,25.502-6.783
	c6.271-4.522,9.406-10.646,9.406-18.378c0-4.729-1.562-9.063-4.685-13.002S323.279,49.054,315.646,44.362z"/>
<path fill="#B6CC38" d="M249.682,44.336c-1.389-0.789-3.362-1.933-5.926-3.435c-10.623-6.153-15.935-11.331-15.935-15.535
	c0-2.402,0.974-4.335,2.924-5.797c1.947-1.464,4.495-2.195,7.646-2.195c3.362,0,6.07,0.92,8.127,2.759
	c0.911,0.813,1.729,1.792,2.422,2.926h-0.032c0.64,1.151,1.086,2.148,1.396,3.029c0.202,0.654,0.378,1.338,0.5,2.07l0,0
	c0.187,1.668-0.304,2.764-0.937,3.667c-1.621,1.938-4.078,3.854-3.314,7.597c0.148,0.234,0.453,0.709,0.604,0.946
	c0.492,0.129,0.833,0.021,0.872-0.561c0.639-2.192,1.543-3.334,5.249-3.94c10.01-1.4,20.572-3.437,16.858-13.158l-0.013,0.001
	c-1.79-6.069-5.4-10.7-10.875-13.864c-5.687-3.282-13.199-4.924-22.541-4.924c-9.77,0-17.654,2.101-23.661,6.303
	c-6.003,4.204-9.007,9.738-9.007,16.604c0,4.728,1.789,9.146,5.365,13.256c3.576,4.108,10.435,9.183,20.577,15.226
	c7.366,4.391,12.077,7.691,14.134,9.906c2.053,2.215,3.082,4.559,3.082,7.035c0,2.629-1,4.748-3.004,6.36
	c-2,1.614-4.604,2.421-7.807,2.421c-3.632,0-6.62-1.005-8.969-3.014c-2.348-2.005-5.088-5.098-5.73-8.771
	c-0.128-1.174,0.158-2.047,0.589-2.826c1.429-2.109,3.724-4.248,2.45-8.075c-0.187-0.231-0.563-0.705-0.751-0.94
	c-0.525-0.101-0.864,0.031-0.829,0.637c-0.377,2.312-1.167,3.553-4.924,4.412c-10.184,2.094-20.854,4.877-15.75,14.705l0.021-0.002
	c1.815,5.188,5.129,9.37,9.994,12.516c5.95,3.847,13.651,5.77,23.101,5.77c10.729,0,19.229-2.263,25.501-6.783
	s9.41-10.646,9.41-18.375c0-4.729-1.563-9.063-4.686-13.004C262.693,53.34,257.314,49.026,249.682,44.336z"/>
<path fill="#2A9242" d="M109.193,44.336c-1.39-0.789-3.362-1.933-5.926-3.435C92.645,34.748,87.334,29.57,87.334,25.366
	c0-2.402,0.975-4.335,2.922-5.797c1.948-1.464,4.496-2.195,7.646-2.195c3.361,0,6.071,0.92,8.126,2.759
	c0.91,0.813,1.729,1.792,2.423,2.926h-0.033c0.641,1.151,1.087,2.148,1.396,3.029c0.205,0.654,0.378,1.338,0.5,2.07l0,0
	c0.187,1.668-0.302,2.764-0.936,3.667c-1.621,1.938-4.078,3.854-3.314,7.597c0.149,0.234,0.453,0.709,0.604,0.946
	c0.493,0.129,0.833,0.021,0.872-0.561c0.639-2.192,1.545-3.334,5.25-3.94c10.01-1.4,20.572-3.437,16.857-13.158l-0.015,0.001
	c-1.787-6.069-5.396-10.7-10.874-13.864c-5.685-3.282-13.198-4.924-22.537-4.924c-9.77,0-17.657,2.101-23.661,6.303
	c-6.005,4.204-9.009,9.738-9.009,16.604c0,4.728,1.788,9.146,5.365,13.256c3.576,4.108,10.436,9.183,20.578,15.226
	c7.366,4.391,12.076,7.691,14.133,9.906c2.054,2.215,3.082,4.559,3.082,7.035c0,2.629-1.001,4.748-3.002,6.36
	c-2.002,1.614-4.604,2.421-7.809,2.421c-3.631,0-6.618-1.005-8.968-3.014c-2.35-2.005-5.09-5.098-5.73-8.771
	c-0.131-1.174,0.155-2.047,0.588-2.826c1.428-2.109,3.724-4.248,2.449-8.075c-0.187-0.231-0.563-0.705-0.75-0.94
	c-0.526-0.101-0.864,0.031-0.828,0.637c-0.377,2.312-1.167,3.553-4.926,4.412c-10.183,2.094-20.854,4.877-15.749,14.705l0.02-0.002
	c1.814,5.188,5.129,9.37,9.994,12.516c5.952,3.847,13.651,5.77,23.102,5.77c10.729,0,19.229-2.263,25.501-6.783
	c6.271-4.521,9.406-10.646,9.406-18.375c0-4.729-1.561-9.063-4.684-13.004C122.205,53.34,116.824,49.026,109.193,44.336z"/>
<path fill="#0D6B38" d="M59.206,12.983c-6.191-4.897-15.611-7.345-28.265-7.345H14.343c-2.414-0.121-3.355-1.222-2.318-2.678
	c0-0.386,0-1.542-1.099-1.542c-6.014,1.953-8.128,9.66-8.313,15.961l-0.014,0.027v58.473v2.295v7.32c0,5.787,2.88,8.391,9.054,8.969
	c4.938,0.578,8.645,0,11.938,0.289c4.938,0.289,7.408,1.449,7.819,1.449c1.646,1.153,2.469,0.285,1.233-0.871
	c-2.47-1.445-6.172-3.473-6.583-7.812l0.688-11.726h-0.016l0.02-0.342l0.107-10.662h2.321c12.384,0,22.031-2.617,28.944-7.852
	c6.913-5.232,10.37-12.485,10.37-21.754C68.495,25.281,65.397,17.88,59.206,12.983z M39.709,46.979
	c-2.695,2.797-6.659,4.195-11.891,4.195h-0.96V18.697c5.766,0.151,10.021,1.53,12.771,4.136c2.748,2.609,4.123,6.558,4.123,11.85
	C43.752,40.086,42.403,44.185,39.709,46.979z"/>
<path fill="#70B045" d="M219.812,85.258c-3.942-2.668-7.626-2.385-10.845-2.6c-2.032-0.242-4.188-0.896-7.123-3.48l-16.986-19.615
	c1.457-0.785,2.822-1.658,4.093-2.62c6.911-5.235,10.368-12.487,10.368-21.754c0-9.908-3.098-17.309-9.289-22.206
	s-15.612-7.345-28.264-7.345h-16.601c-2.415-0.121-3.355-1.222-2.319-2.678c0-0.386,0-1.542-1.098-1.542
	c-6.015,1.953-8.127,9.66-8.313,15.961l-0.015,0.027v58.473v2.295v7.32c0,5.787,2.88,8.391,9.057,8.969
	c4.938,0.578,8.644,0,11.937,0.289c4.938,0.289,7.406,1.449,7.817,1.449c1.646,1.153,2.471,0.285,1.234-0.871
	c-2.469-1.445-6.173-3.473-6.583-7.812l0.688-11.726h-0.015l0.02-0.342l0.106-10.662h2.321c1.171,0,2.309-0.026,3.431-0.076
	l19.277,20.279l0.243,0.342l-0.023,0.012c0.063,0.078,0.13,0.148,0.194,0.227l0.039,0.051l0.016,0.012
	c10.479,12.41,20.175,6.939,28.538,1.4c2.871-1.783,4.738-1.627,7.685-0.693c0.705,0.324,1.028,0.193,1.165-0.168
	C220.378,85.945,220.001,85.488,219.812,85.258z M157.682,18.697c5.767,0.151,10.021,1.53,12.771,4.136
	c2.749,2.609,4.122,6.558,4.122,11.85c0,5.403-1.349,9.504-4.043,12.298c-2.696,2.797-6.659,4.195-11.891,4.195h-0.961
	L157.682,18.697L157.682,18.697z"/>
</svg>
